<?xml version="1.0" encoding="UTF-8" standalone="no"?>
<!-- Generator: Adobe Illustrator 24.0.3, SVG Export Plug-In . SVG Version: 6.00 Build 0)  -->

<svg
   xmlns:dc="http://purl.org/dc/elements/1.1/"
   xmlns:cc="http://creativecommons.org/ns#"
   xmlns:rdf="http://www.w3.org/1999/02/22-rdf-syntax-ns#"
   xmlns:svg="http://www.w3.org/2000/svg"
   xmlns="http://www.w3.org/2000/svg"
   xmlns:sodipodi="http://sodipodi.sourceforge.net/DTD/sodipodi-0.dtd"
   xmlns:inkscape="http://www.inkscape.org/namespaces/inkscape"
   version="1.1"
   id="Capa_1"
   x="0px"
   y="0px"
   width="240px"
   height="60px"
   viewBox="0 0 240 60"
   enable-background="new 0 0 240 60"
   xml:space="preserve"
   sodipodi:docname="nes3d.svg"
   inkscape:version="0.92.3 (2405546, 2018-03-11)"><metadata
   id="metadata37"><rdf:RDF><cc:Work
       rdf:about=""><dc:format>image/svg+xml</dc:format><dc:type
         rdf:resource="http://purl.org/dc/dcmitype/StillImage" /><dc:title></dc:title></cc:Work></rdf:RDF></metadata><defs
   id="defs35" /><sodipodi:namedview
   pagecolor="#ffffff"
   bordercolor="#666666"
   borderopacity="1"
   objecttolerance="10"
   gridtolerance="10"
   guidetolerance="10"
   inkscape:pageopacity="0"
   inkscape:pageshadow="2"
   inkscape:window-width="1920"
   inkscape:window-height="1001"
   id="namedview33"
   showgrid="false"
   inkscape:zoom="4.6838256"
   inkscape:cx="120.87293"
   inkscape:cy="30"
   inkscape:window-x="-9"
   inkscape:window-y="-9"
   inkscape:window-maximized="1"
   inkscape:current-layer="text41-4"
   inkscape:measure-start="0,0"
   inkscape:measure-end="0,0" />
<path
   enable-background="new    "
   d="m 11,5.4901466e-7 h 218 c 6.1,0 11,4.89999995098534 11,11.00000045098534 v 38 c 0,6.1 -4.9,11 -11,11 H 11 c -6.1,0 -11,-4.9 -11,-11 v -38 C 0,4.9000005 4.9,5.4901466e-7 11,5.4901466e-7 Z"
   id="path10"
   inkscape:connector-curvature="0"
   style="clip-rule:evenodd;opacity:0.85;fill:#4d4d4d;fill-rule:evenodd" />

<g
   aria-label="Nintendo 3D"
   style="font-style:normal;font-variant:normal;font-weight:bold;font-stretch:normal;font-size:40px;line-height:1.25;font-family:Ebrima;-inkscape-font-specification:'Ebrima Bold';letter-spacing:0px;word-spacing:0px;fill:#e6e6e6;fill-opacity:1;stroke:none"
   id="text41-4"><path
     d="M 78.357422,34.592285 H 75.492187 L 70.297852,26.67334 Q 69.84082,25.979004 69.665039,25.627441 h -0.03516 q 0.07031,0.667969 0.07031,2.039063 v 6.925781 H 67.019531 V 21.98877 h 3.058594 l 5.000977,7.672851 q 0.342773,0.518555 0.632812,1.02832 h 0.03516 q -0.07031,-0.439453 -0.07031,-1.731445 V 21.98877 h 2.680664 z"
     style="font-style:normal;font-variant:normal;font-weight:bold;font-stretch:normal;font-size:18px;font-family:Ebrima;-inkscape-font-specification:'Ebrima Bold';text-align:center;text-anchor:middle;fill:#e6e6e6"
     id="path17" /><path
     d="m 82.391602,24.168457 q -0.703125,0 -1.151368,-0.413086 -0.448242,-0.421875 -0.448242,-1.02832 0,-0.624024 0.448242,-1.019531 0.448243,-0.395508 1.151368,-0.395508 0.711914,0 1.151367,0.395508 0.448242,0.395507 0.448242,1.019531 0,0.632812 -0.448242,1.037109 -0.439453,0.404297 -1.151367,0.404297 z m 1.371093,10.423828 h -2.777343 v -9 h 2.777343 z"
     style="font-style:normal;font-variant:normal;font-weight:bold;font-stretch:normal;font-size:18px;font-family:Ebrima;-inkscape-font-specification:'Ebrima Bold';text-align:center;text-anchor:middle;fill:#e6e6e6"
     id="path19" /><path
     d="m 94.810547,34.592285 h -2.768555 v -5.000976 q 0,-2.091797 -1.49414,-2.091797 -0.720704,0 -1.186524,0.553711 -0.46582,0.553711 -0.46582,1.40625 v 5.132812 h -2.777344 v -9 h 2.777344 v 1.423828 h 0.03516 q 0.993164,-1.643554 2.891602,-1.643554 2.988281,0 2.988281,3.708984 z"
     style="font-style:normal;font-variant:normal;font-weight:bold;font-stretch:normal;font-size:18px;font-family:Ebrima;-inkscape-font-specification:'Ebrima Bold';text-align:center;text-anchor:middle;fill:#e6e6e6"
     id="path21" /><path
     d="m 102.45703,34.486816 q -0.61523,0.325196 -1.85449,0.325196 -2.935548,0 -2.935548,-3.049805 v -4.12207 h -1.458984 v -2.047852 h 1.458984 v -1.942383 l 2.768558,-0.791015 v 2.733398 h 2.02148 v 2.047852 h -2.02148 v 3.638672 q 0,1.40625 1.11621,1.40625 0.43945,0 0.90527,-0.254883 z"
     style="font-style:normal;font-variant:normal;font-weight:bold;font-stretch:normal;font-size:18px;font-family:Ebrima;-inkscape-font-specification:'Ebrima Bold';text-align:center;text-anchor:middle;fill:#e6e6e6"
     id="path23" /><path
     d="m 112.09863,30.883301 h -5.87109 q 0.14062,1.959961 2.46973,1.959961 1.48535,0 2.61035,-0.703125 v 2.003906 q -1.24805,0.667969 -3.24317,0.667969 -2.17968,0 -3.38379,-1.204102 -1.2041,-1.21289 -1.2041,-3.375 0,-2.241211 1.30078,-3.550781 1.30079,-1.30957 3.19922,-1.30957 1.96875,0 3.04102,1.168945 1.08105,1.168945 1.08105,3.172851 z m -2.57519,-1.705078 q 0,-1.933594 -1.56446,-1.933594 -0.66796,0 -1.16015,0.553711 -0.4834,0.553711 -0.58887,1.379883 z"
     style="font-style:normal;font-variant:normal;font-weight:bold;font-stretch:normal;font-size:18px;font-family:Ebrima;-inkscape-font-specification:'Ebrima Bold';text-align:center;text-anchor:middle;fill:#e6e6e6"
     id="path25" /><path
     d="m 122.44336,34.592285 h -2.76856 v -5.000976 q 0,-2.091797 -1.49414,-2.091797 -0.7207,0 -1.18652,0.553711 -0.46582,0.553711 -0.46582,1.40625 v 5.132812 h -2.77734 v -9 h 2.77734 v 1.423828 h 0.0352 q 0.99316,-1.643554 2.8916,-1.643554 2.98828,0 2.98828,3.708984 z"
     style="font-style:normal;font-variant:normal;font-weight:bold;font-stretch:normal;font-size:18px;font-family:Ebrima;-inkscape-font-specification:'Ebrima Bold';text-align:center;text-anchor:middle;fill:#e6e6e6"
     id="path27" /><path
     d="m 133.45605,34.592285 h -2.77734 v -1.239258 h -0.0352 q -0.94921,1.458985 -2.78613,1.458985 -1.6875,0 -2.71582,-1.186524 -1.02832,-1.195312 -1.02832,-3.331054 0,-2.232422 1.13379,-3.577149 1.13379,-1.344726 2.9707,-1.344726 1.74024,0 2.42578,1.248046 h 0.0352 v -5.352539 h 2.77734 z m -2.7246,-4.376953 v -0.676758 q 0,-0.878906 -0.50977,-1.458984 -0.50977,-0.580078 -1.32715,-0.580078 -0.92285,0 -1.4414,0.729492 -0.51856,0.720703 -0.51856,1.986328 0,1.186523 0.50098,1.828125 0.50097,0.641602 1.38867,0.641602 0.84375,0 1.37109,-0.676758 0.53614,-0.676758 0.53614,-1.792969 z"
     style="font-style:normal;font-variant:normal;font-weight:bold;font-stretch:normal;font-size:18px;font-family:Ebrima;-inkscape-font-specification:'Ebrima Bold';text-align:center;text-anchor:middle;fill:#e6e6e6"
     id="path29" /><path
     d="m 140.08301,34.812012 q -2.25,0 -3.54199,-1.256836 -1.28321,-1.265625 -1.28321,-3.427735 0,-2.232421 1.33594,-3.489257 1.33594,-1.265625 3.6123,-1.265625 2.24122,0 3.51563,1.265625 1.27441,1.256836 1.27441,3.331054 0,2.241211 -1.31836,3.541992 -1.30957,1.300782 -3.59472,1.300782 z m 0.0703,-7.3125 q -0.98437,0 -1.5293,0.676758 -0.54492,0.676757 -0.54492,1.916015 0,2.592774 2.0918,2.592774 1.99512,0 1.99512,-2.663086 0,-2.522461 -2.0127,-2.522461 z"
     style="font-style:normal;font-variant:normal;font-weight:bold;font-stretch:normal;font-size:18px;font-family:Ebrima;-inkscape-font-specification:'Ebrima Bold';text-align:center;text-anchor:middle;fill:#e6e6e6"
     id="path31" /><path
     d="m 151.61426,34.179199 v -2.416992 q 1.26562,0.922852 2.95312,0.922852 1.06348,0 1.65235,-0.457032 0.59765,-0.457031 0.59765,-1.274414 0,-0.84375 -0.73828,-1.300781 -0.72949,-0.457031 -2.01269,-0.457031 h -1.16895 v -2.126953 h 1.08106 q 2.46093,0 2.46093,-1.634766 0,-1.538086 -1.88965,-1.538086 -1.26562,0 -2.46093,0.817383 v -2.267578 q 1.32715,-0.667969 3.09375,-0.667969 1.93359,0 3.00586,0.870117 1.08105,0.870117 1.08105,2.258789 0,2.469727 -2.50488,3.09375 v 0.04395 q 1.33594,0.166992 2.10937,0.975586 0.77344,0.799804 0.77344,1.96875 0,1.766601 -1.29199,2.794921 -1.29199,1.028321 -3.56836,1.028321 -1.95117,0 -3.17285,-0.632813 z"
     style="font-style:normal;font-variant:normal;font-weight:bold;font-stretch:normal;font-size:18px;font-family:Ebrima;-inkscape-font-specification:'Ebrima Bold';text-align:center;text-anchor:middle;fill:#e6e6e6"
     id="path33" /><path
     d="M 162.39844,34.592285 V 21.98877 h 4.46484 q 6.71484,0 6.71484,6.143554 0,2.944336 -1.83691,4.702149 -1.82812,1.757812 -4.87793,1.757812 z m 2.83886,-10.291992 v 7.989258 h 1.40625 q 1.84571,0 2.89161,-1.107422 1.05468,-1.107422 1.05468,-3.014649 0,-1.801757 -1.04589,-2.830078 -1.03711,-1.037109 -2.91797,-1.037109 z"
     style="font-style:normal;font-variant:normal;font-weight:bold;font-stretch:normal;font-size:18px;font-family:Ebrima;-inkscape-font-specification:'Ebrima Bold';text-align:center;text-anchor:middle;fill:#e6e6e6"
     id="path35" /></g>

</svg>