<?xml version="1.0" encoding="UTF-8" standalone="no"?>
<!-- Generator: Adobe Illustrator 24.0.3, SVG Export Plug-In . SVG Version: 6.00 Build 0)  -->

<svg
   xmlns:dc="http://purl.org/dc/elements/1.1/"
   xmlns:cc="http://creativecommons.org/ns#"
   xmlns:rdf="http://www.w3.org/1999/02/22-rdf-syntax-ns#"
   xmlns:svg="http://www.w3.org/2000/svg"
   xmlns="http://www.w3.org/2000/svg"
   xmlns:sodipodi="http://sodipodi.sourceforge.net/DTD/sodipodi-0.dtd"
   xmlns:inkscape="http://www.inkscape.org/namespaces/inkscape"
   version="1.1"
   id="Capa_1"
   x="0px"
   y="0px"
   width="240px"
   height="60px"
   viewBox="0 0 240 60"
   enable-background="new 0 0 240 60"
   xml:space="preserve"
   sodipodi:docname="namco22.svg"
   inkscape:version="0.92.3 (2405546, 2018-03-11)"><metadata
   id="metadata37"><rdf:RDF><cc:Work
       rdf:about=""><dc:format>image/svg+xml</dc:format><dc:type
         rdf:resource="http://purl.org/dc/dcmitype/StillImage" /><dc:title></dc:title></cc:Work></rdf:RDF></metadata><defs
   id="defs35" /><sodipodi:namedview
   pagecolor="#ffffff"
   bordercolor="#666666"
   borderopacity="1"
   objecttolerance="10"
   gridtolerance="10"
   guidetolerance="10"
   inkscape:pageopacity="0"
   inkscape:pageshadow="2"
   inkscape:window-width="1920"
   inkscape:window-height="1001"
   id="namedview33"
   showgrid="false"
   inkscape:zoom="4.6838256"
   inkscape:cx="120.87293"
   inkscape:cy="30"
   inkscape:window-x="-9"
   inkscape:window-y="-9"
   inkscape:window-maximized="1"
   inkscape:current-layer="text41-4"
   inkscape:measure-start="0,0"
   inkscape:measure-end="0,0" />
<path
   enable-background="new    "
   d="m 11,5.4901466e-7 h 218 c 6.1,0 11,4.89999995098534 11,11.00000045098534 v 38 c 0,6.1 -4.9,11 -11,11 H 11 c -6.1,0 -11,-4.9 -11,-11 v -38 C 0,4.9000005 4.9,5.4901466e-7 11,5.4901466e-7 Z"
   id="path10"
   inkscape:connector-curvature="0"
   style="clip-rule:evenodd;opacity:0.85;fill:#4d4d4d;fill-rule:evenodd" />

<g
   aria-label="Namco System 22"
   style="font-style:normal;font-variant:normal;font-weight:bold;font-stretch:normal;font-size:40px;line-height:1.25;font-family:Ebrima;-inkscape-font-specification:'Ebrima Bold';letter-spacing:0px;word-spacing:0px;fill:#e6e6e6;fill-opacity:1;stroke:none"
   id="text41-4"><path
     d="M 56.859375,34.592285 H 53.994141 L 48.799805,26.67334 q -0.457032,-0.694336 -0.632813,-1.045899 h -0.03516 q 0.07031,0.667969 0.07031,2.039063 v 6.925781 H 45.521484 V 21.98877 h 3.058594 l 5.000977,7.672851 q 0.342773,0.518555 0.632812,1.02832 h 0.03516 q -0.07031,-0.439453 -0.07031,-1.731445 V 21.98877 h 2.680664 z"
     style="font-style:normal;font-variant:normal;font-weight:bold;font-stretch:normal;font-size:18px;font-family:Ebrima;-inkscape-font-specification:'Ebrima Bold';text-align:center;text-anchor:middle;fill:#e6e6e6"
     id="path54" /><path
     d="m 66.975586,34.592285 h -2.62793 V 33.300293 H 64.3125 q -0.905273,1.511719 -2.680664,1.511719 -1.30957,0 -2.06543,-0.738282 -0.74707,-0.74707 -0.74707,-1.986328 0,-2.61914 3.102539,-3.023437 l 2.443359,-0.325195 q 0,-1.476563 -1.599609,-1.476563 -1.608398,0 -3.058594,0.958008 v -2.091797 q 0.580078,-0.298828 1.582031,-0.527344 1.010743,-0.228515 1.836915,-0.228515 3.849609,0 3.849609,3.84082 z m -2.610352,-3.65625 V 30.32959 l -1.634765,0.210937 q -1.353516,0.175782 -1.353516,1.22168 0,0.474609 0.325195,0.782227 0.333985,0.298828 0.896485,0.298828 0.782226,0 1.274414,-0.536133 0.492187,-0.544922 0.492187,-1.371094 z"
     style="font-style:normal;font-variant:normal;font-weight:bold;font-stretch:normal;font-size:18px;font-family:Ebrima;-inkscape-font-specification:'Ebrima Bold';text-align:center;text-anchor:middle;fill:#e6e6e6"
     id="path56" /><path
     d="m 83.481445,34.592285 h -2.768554 v -5.132812 q 0,-1.959961 -1.441407,-1.959961 -0.685547,0 -1.116211,0.588867 -0.430664,0.588867 -0.430664,1.467773 v 5.036133 h -2.777343 v -5.185547 q 0,-1.907226 -1.415039,-1.907226 -0.711915,0 -1.142579,0.5625 -0.421875,0.5625 -0.421875,1.529297 v 5.000976 H 69.19043 v -9 h 2.777343 v 1.40625 h 0.03516 q 0.430664,-0.720703 1.204101,-1.168945 0.782227,-0.457031 1.705078,-0.457031 1.907227,0 2.610352,1.678711 1.02832,-1.678711 3.023437,-1.678711 2.935547,0 2.935547,3.621093 z"
     style="font-style:normal;font-variant:normal;font-weight:bold;font-stretch:normal;font-size:18px;font-family:Ebrima;-inkscape-font-specification:'Ebrima Bold';text-align:center;text-anchor:middle;fill:#e6e6e6"
     id="path58" /><path
     d="m 92.499023,34.26709 q -0.940429,0.544922 -2.71582,0.544922 -2.074219,0 -3.357422,-1.256836 -1.283203,-1.256836 -1.283203,-3.243164 0,-2.293946 1.371094,-3.612305 1.379883,-1.327148 3.682617,-1.327148 1.59082,0 2.302734,0.421875 v 2.355468 q -0.870117,-0.65039 -1.942382,-0.65039 -1.195313,0 -1.898438,0.703125 -0.694336,0.694336 -0.694336,1.924804 0,1.195313 0.667969,1.88086 0.667969,0.676758 1.836914,0.676758 1.037109,0 2.030273,-0.650391 z"
     style="font-style:normal;font-variant:normal;font-weight:bold;font-stretch:normal;font-size:18px;font-family:Ebrima;-inkscape-font-specification:'Ebrima Bold';text-align:center;text-anchor:middle;fill:#e6e6e6"
     id="path60" /><path
     d="m 98.616211,34.812012 q -2.25,0 -3.541992,-1.256836 -1.283203,-1.265625 -1.283203,-3.427735 0,-2.232421 1.335937,-3.489257 1.335938,-1.265625 3.612305,-1.265625 2.241212,0 3.515622,1.265625 1.27442,1.256836 1.27442,3.331054 0,2.241211 -1.31836,3.541992 -1.30957,1.300782 -3.594729,1.300782 z m 0.07031,-7.3125 q -0.984375,0 -1.529296,0.676758 -0.544922,0.676757 -0.544922,1.916015 0,2.592774 2.091797,2.592774 1.995118,0 1.995118,-2.663086 0,-2.522461 -2.012697,-2.522461 z"
     style="font-style:normal;font-variant:normal;font-weight:bold;font-stretch:normal;font-size:18px;font-family:Ebrima;-inkscape-font-specification:'Ebrima Bold';text-align:center;text-anchor:middle;fill:#e6e6e6"
     id="path62" /><path
     d="m 109.98047,34.108887 v -2.8125 q 0.76465,0.641601 1.66113,0.966797 0.89649,0.316406 1.81055,0.316406 0.53613,0 0.93164,-0.09668 0.4043,-0.09668 0.66797,-0.263672 0.27246,-0.175781 0.40429,-0.404297 0.13184,-0.237304 0.13184,-0.509765 0,-0.369141 -0.21094,-0.65918 -0.21093,-0.290039 -0.58007,-0.536133 -0.36036,-0.246093 -0.86133,-0.474609 -0.50098,-0.228516 -1.08106,-0.46582 -1.47656,-0.615235 -2.20605,-1.50293 -0.72071,-0.887695 -0.72071,-2.144531 0,-0.984375 0.39551,-1.6875 0.39551,-0.711914 1.07227,-1.168946 0.68554,-0.457031 1.58203,-0.667968 0.89648,-0.219727 1.89844,-0.219727 0.98437,0 1.74023,0.123047 0.76465,0.114258 1.40625,0.360351 v 2.62793 q -0.31641,-0.219726 -0.69433,-0.386719 -0.36915,-0.166992 -0.76465,-0.272461 -0.39551,-0.114257 -0.79102,-0.166992 -0.38672,-0.05273 -0.73828,-0.05273 -0.4834,0 -0.87891,0.09668 -0.3955,0.08789 -0.66797,0.254882 -0.27246,0.166993 -0.42187,0.404297 -0.14941,0.228516 -0.14941,0.518555 0,0.316406 0.16699,0.571289 0.16699,0.246094 0.47461,0.474609 0.30761,0.219727 0.74707,0.439454 0.43945,0.210937 0.99316,0.439453 0.75586,0.316406 1.35352,0.676757 0.60644,0.351563 1.03711,0.799805 0.43066,0.448242 0.65918,1.02832 0.22851,0.57129 0.22851,1.335938 0,1.054687 -0.40429,1.775391 -0.39551,0.711914 -1.08106,1.160156 -0.68555,0.439453 -1.59961,0.632812 -0.90527,0.19336 -1.91601,0.19336 -1.03711,0 -1.97754,-0.175782 -0.93164,-0.175781 -1.61719,-0.527343 z"
     style="font-style:normal;font-variant:normal;font-weight:bold;font-stretch:normal;font-size:18px;font-family:Ebrima;-inkscape-font-specification:'Ebrima Bold';text-align:center;text-anchor:middle;fill:#e6e6e6"
     id="path64" /><path
     d="m 128.94727,25.592285 -3.65625,9.720703 q -1.31836,3.506836 -3.97266,3.506836 -1.01074,0 -1.66113,-0.228515 v -2.214844 q 0.55371,0.325195 1.2041,0.325195 1.07226,0 1.49414,-1.010742 l 0.47461,-1.116211 -3.65625,-8.982422 H 122.25 l 1.67871,5.475586 q 0.1582,0.509766 0.24609,1.204102 h 0.0352 q 0.0791,-0.509766 0.29004,-1.186524 l 1.69629,-5.493164 z"
     style="font-style:normal;font-variant:normal;font-weight:bold;font-stretch:normal;font-size:18px;font-family:Ebrima;-inkscape-font-specification:'Ebrima Bold';text-align:center;text-anchor:middle;fill:#e6e6e6"
     id="path66" /><path
     d="m 129.49219,34.35498 v -2.25 q 0.68554,0.413086 1.3623,0.615235 0.68555,0.202148 1.29199,0.202148 0.73829,0 1.16016,-0.202148 0.43066,-0.202149 0.43066,-0.615235 0,-0.263671 -0.19335,-0.439453 -0.19336,-0.175781 -0.50098,-0.307617 -0.29883,-0.131836 -0.65918,-0.237305 -0.36035,-0.105468 -0.69434,-0.237304 -0.53613,-0.202149 -0.94922,-0.430664 -0.40429,-0.237305 -0.68554,-0.544922 -0.27246,-0.307617 -0.42188,-0.711914 -0.14062,-0.404297 -0.14062,-0.958008 0,-0.755859 0.32519,-1.300781 0.33399,-0.544922 0.87891,-0.887696 0.55371,-0.351562 1.25683,-0.509765 0.71192,-0.166992 1.47657,-0.166992 0.59765,0 1.21289,0.09668 0.61523,0.08789 1.21289,0.263672 v 2.144531 q -0.52735,-0.307617 -1.13379,-0.457031 -0.59766,-0.158203 -1.17773,-0.158203 -0.27247,0 -0.51856,0.05273 -0.2373,0.04395 -0.42187,0.140625 -0.18457,0.08789 -0.29004,0.237305 -0.10547,0.140625 -0.10547,0.325195 0,0.246094 0.1582,0.421875 0.1582,0.175782 0.41309,0.307618 0.25488,0.123046 0.5625,0.228515 0.3164,0.09668 0.62402,0.202149 0.55371,0.193359 1.00195,0.421875 0.44825,0.228515 0.76465,0.536132 0.3252,0.307618 0.49219,0.720704 0.17578,0.413086 0.17578,0.984375 0,0.799804 -0.35156,1.371093 -0.34278,0.5625 -0.92285,0.922852 -0.57129,0.351562 -1.32715,0.509766 -0.74707,0.166992 -1.55567,0.166992 -1.48535,0 -2.75097,-0.457032 z"
     style="font-style:normal;font-variant:normal;font-weight:bold;font-stretch:normal;font-size:18px;font-family:Ebrima;-inkscape-font-specification:'Ebrima Bold';text-align:center;text-anchor:middle;fill:#e6e6e6"
     id="path68" /><path
     d="m 143.43164,34.486816 q -0.61523,0.325196 -1.85449,0.325196 -2.93555,0 -2.93555,-3.049805 v -4.12207 h -1.45898 v -2.047852 h 1.45898 v -1.942383 l 2.76856,-0.791015 v 2.733398 h 2.02148 v 2.047852 h -2.02148 v 3.638672 q 0,1.40625 1.11621,1.40625 0.43945,0 0.90527,-0.254883 z"
     style="font-style:normal;font-variant:normal;font-weight:bold;font-stretch:normal;font-size:18px;font-family:Ebrima;-inkscape-font-specification:'Ebrima Bold';text-align:center;text-anchor:middle;fill:#e6e6e6"
     id="path70" /><path
     d="m 153.07324,30.883301 h -5.87109 q 0.14062,1.959961 2.46972,1.959961 1.48536,0 2.61036,-0.703125 v 2.003906 q -1.24805,0.667969 -3.24317,0.667969 -2.17969,0 -3.38379,-1.204102 -1.2041,-1.21289 -1.2041,-3.375 0,-2.241211 1.30078,-3.550781 1.30078,-1.30957 3.19922,-1.30957 1.96875,0 3.04102,1.168945 1.08105,1.168945 1.08105,3.172851 z m -2.57519,-1.705078 q 0,-1.933594 -1.56446,-1.933594 -0.66797,0 -1.16015,0.553711 -0.4834,0.553711 -0.58887,1.379883 z"
     style="font-style:normal;font-variant:normal;font-weight:bold;font-stretch:normal;font-size:18px;font-family:Ebrima;-inkscape-font-specification:'Ebrima Bold';text-align:center;text-anchor:middle;fill:#e6e6e6"
     id="path72" /><path
     d="m 169.0166,34.592285 h -2.76855 v -5.132812 q 0,-1.959961 -1.44141,-1.959961 -0.68555,0 -1.11621,0.588867 -0.43066,0.588867 -0.43066,1.467773 v 5.036133 h -2.77735 v -5.185547 q 0,-1.907226 -1.41504,-1.907226 -0.71191,0 -1.14258,0.5625 -0.42187,0.5625 -0.42187,1.529297 v 5.000976 h -2.77734 v -9 h 2.77734 v 1.40625 h 0.0352 q 0.43066,-0.720703 1.2041,-1.168945 0.78222,-0.457031 1.70508,-0.457031 1.90722,0 2.61035,1.678711 1.02832,-1.678711 3.02343,-1.678711 2.93555,0 2.93555,3.621093 z"
     style="font-style:normal;font-variant:normal;font-weight:bold;font-stretch:normal;font-size:18px;font-family:Ebrima;-inkscape-font-specification:'Ebrima Bold';text-align:center;text-anchor:middle;fill:#e6e6e6"
     id="path74" /><path
     d="m 178.77246,32.289551 h 5.34375 v 2.302734 h -8.38476 v -0.949219 q 0,-0.966796 0.32519,-1.731445 0.3252,-0.773437 0.81738,-1.379883 0.49219,-0.615234 1.07227,-1.081054 0.58887,-0.47461 1.11621,-0.852539 0.55371,-0.395508 0.9668,-0.75586 0.42187,-0.360351 0.70312,-0.711914 0.29004,-0.360351 0.43067,-0.720703 0.14062,-0.369141 0.14062,-0.782227 0,-0.808593 -0.45703,-1.221679 -0.45703,-0.413086 -1.39746,-0.413086 -1.62598,0 -3.11133,1.291992 v -2.443359 q 1.64356,-1.063477 3.70898,-1.063477 0.95801,0 1.71387,0.254883 0.76465,0.246094 1.29199,0.711914 0.52735,0.46582 0.79981,1.133789 0.28125,0.65918 0.28125,1.476562 0,0.870118 -0.27246,1.546875 -0.26367,0.676758 -0.71192,1.230469 -0.43945,0.553711 -1.01953,1.019531 -0.58008,0.457032 -1.2041,0.887696 -0.42187,0.298828 -0.81738,0.597656 -0.38672,0.290039 -0.68555,0.580078 -0.29883,0.28125 -0.47461,0.553711 -0.17578,0.272461 -0.17578,0.518555 z"
     style="font-style:normal;font-variant:normal;font-weight:bold;font-stretch:normal;font-size:18px;font-family:Ebrima;-inkscape-font-specification:'Ebrima Bold';text-align:center;text-anchor:middle;fill:#e6e6e6"
     id="path76" /><path
     d="m 189.14355,32.289551 h 5.34375 v 2.302734 h -8.38476 v -0.949219 q 0,-0.966796 0.32519,-1.731445 0.3252,-0.773437 0.81739,-1.379883 0.49218,-0.615234 1.07226,-1.081054 0.58887,-0.47461 1.11621,-0.852539 0.55371,-0.395508 0.9668,-0.75586 0.42188,-0.360351 0.70313,-0.711914 0.29003,-0.360351 0.43066,-0.720703 0.14062,-0.369141 0.14062,-0.782227 0,-0.808593 -0.45703,-1.221679 -0.45703,-0.413086 -1.39746,-0.413086 -1.62597,0 -3.11133,1.291992 v -2.443359 q 1.64356,-1.063477 3.70899,-1.063477 0.95801,0 1.71387,0.254883 0.76464,0.246094 1.29199,0.711914 0.52734,0.46582 0.7998,1.133789 0.28125,0.65918 0.28125,1.476562 0,0.870118 -0.27246,1.546875 -0.26367,0.676758 -0.71191,1.230469 -0.43946,0.553711 -1.01953,1.019531 -0.58008,0.457032 -1.20411,0.887696 -0.42187,0.298828 -0.81738,0.597656 -0.38672,0.290039 -0.68554,0.580078 -0.29883,0.28125 -0.47461,0.553711 -0.17579,0.272461 -0.17579,0.518555 z"
     style="font-style:normal;font-variant:normal;font-weight:bold;font-stretch:normal;font-size:18px;font-family:Ebrima;-inkscape-font-specification:'Ebrima Bold';text-align:center;text-anchor:middle;fill:#e6e6e6"
     id="path78" /></g>

</svg>