<?xml version="1.0" encoding="UTF-8" standalone="no"?>
<!-- Generator: Adobe Illustrator 24.0.3, SVG Export Plug-In . SVG Version: 6.00 Build 0)  -->

<svg
   xmlns:dc="http://purl.org/dc/elements/1.1/"
   xmlns:cc="http://creativecommons.org/ns#"
   xmlns:rdf="http://www.w3.org/1999/02/22-rdf-syntax-ns#"
   xmlns:svg="http://www.w3.org/2000/svg"
   xmlns="http://www.w3.org/2000/svg"
   xmlns:sodipodi="http://sodipodi.sourceforge.net/DTD/sodipodi-0.dtd"
   xmlns:inkscape="http://www.inkscape.org/namespaces/inkscape"
   version="1.1"
   id="Capa_1"
   x="0px"
   y="0px"
   width="240px"
   height="60px"
   viewBox="0 0 240 60"
   enable-background="new 0 0 240 60"
   xml:space="preserve"
   sodipodi:docname="naomi.svg"
   inkscape:version="0.92.3 (2405546, 2018-03-11)"><metadata
   id="metadata37"><rdf:RDF><cc:Work
       rdf:about=""><dc:format>image/svg+xml</dc:format><dc:type
         rdf:resource="http://purl.org/dc/dcmitype/StillImage" /><dc:title></dc:title></cc:Work></rdf:RDF></metadata><defs
   id="defs35" /><sodipodi:namedview
   pagecolor="#ffffff"
   bordercolor="#666666"
   borderopacity="1"
   objecttolerance="10"
   gridtolerance="10"
   guidetolerance="10"
   inkscape:pageopacity="0"
   inkscape:pageshadow="2"
   inkscape:window-width="1920"
   inkscape:window-height="986"
   id="namedview33"
   showgrid="false"
   inkscape:zoom="4.6838256"
   inkscape:cx="117.13667"
   inkscape:cy="30"
   inkscape:window-x="-11"
   inkscape:window-y="-11"
   inkscape:window-maximized="1"
   inkscape:current-layer="text41-4"
   inkscape:measure-start="0,0"
   inkscape:measure-end="0,0" />
<path
   enable-background="new    "
   d="m 11,5.4901466e-7 h 218 c 6.1,0 11,4.89999995098534 11,11.00000045098534 v 38 c 0,6.1 -4.9,11 -11,11 H 11 c -6.1,0 -11,-4.9 -11,-11 v -38 C 0,4.9000005 4.9,5.4901466e-7 11,5.4901466e-7 Z"
   id="path10"
   inkscape:connector-curvature="0"
   style="clip-rule:evenodd;opacity:0.85;fill:#4d4d4d;fill-rule:evenodd" />

<g
   aria-label="Sega Naomi 2"
   style="font-style:normal;font-variant:normal;font-weight:bold;font-stretch:normal;font-size:40px;line-height:1.25;font-family:Ebrima;-inkscape-font-specification:'Ebrima Bold';letter-spacing:0px;word-spacing:0px;fill:#e6e6e6;fill-opacity:1;stroke:none"
   id="text41-4"><path
     id="path95"
     style="font-style:normal;font-variant:normal;font-weight:bold;font-stretch:normal;font-size:18px;font-family:Ebrima;-inkscape-font-specification:'Ebrima Bold';text-align:center;text-anchor:middle;fill:#e6e6e6"
     d="m 172.0752,32.289551 h 5.34375 v 2.302734 h -8.38477 v -0.949219 q 0,-0.966796 0.32519,-1.731445 0.3252,-0.773437 0.81739,-1.379883 0.49219,-0.615234 1.07226,-1.081054 0.58887,-0.47461 1.11621,-0.852539 0.55372,-0.395508 0.9668,-0.75586 0.42188,-0.360351 0.70313,-0.711914 0.29004,-0.360351 0.43066,-0.720703 0.14063,-0.369141 0.14063,-0.782227 0,-0.808593 -0.45704,-1.221679 -0.45703,-0.413086 -1.39746,-0.413086 -1.62597,0 -3.11133,1.291992 v -2.443359 q 1.64356,-1.063477 3.70899,-1.063477 0.95801,0 1.71387,0.254883 0.76464,0.246094 1.29199,0.711914 0.52734,0.46582 0.7998,1.133789 0.28125,0.65918 0.28125,1.476562 0,0.870118 -0.27246,1.546875 -0.26367,0.676758 -0.71191,1.230469 -0.43945,0.553711 -1.01953,1.019531 -0.58008,0.457032 -1.2041,0.887696 -0.42188,0.298828 -0.81739,0.597656 -0.38672,0.290039 -0.68554,0.580078 -0.29883,0.28125 -0.47461,0.553711 -0.17578,0.272461 -0.17578,0.518555 z m -11.28516,-8.121094 q -0.70313,0 -1.15137,-0.413086 -0.44824,-0.421875 -0.44824,-1.02832 0,-0.624024 0.44824,-1.019531 0.44824,-0.395508 1.15137,-0.395508 0.71191,0 1.15137,0.395508 0.44824,0.395507 0.44824,1.019531 0,0.632812 -0.44824,1.037109 -0.43946,0.404297 -1.15137,0.404297 z m 1.37109,10.423828 h -2.77734 v -9 h 2.77734 z m -4.97461,0 h -2.76855 v -5.132812 q 0,-1.959961 -1.44141,-1.959961 -0.68554,0 -1.11621,0.588867 -0.43066,0.588867 -0.43066,1.467773 v 5.036133 h -2.77735 v -5.185547 q 0,-1.907226 -1.41504,-1.907226 -0.71191,0 -1.14257,0.5625 -0.42188,0.5625 -0.42188,1.529297 v 5.000976 h -2.77734 v -9 h 2.77734 v 1.40625 h 0.0352 q 0.43066,-0.720703 1.2041,-1.168945 0.78223,-0.457031 1.70508,-0.457031 1.90722,0 2.61035,1.678711 1.02832,-1.678711 3.02344,-1.678711 2.93554,0 2.93554,3.621093 z m -21.00586,0.219727 q -2.25,0 -3.54199,-1.256836 -1.2832,-1.265625 -1.2832,-3.427735 0,-2.232421 1.33594,-3.489257 1.33593,-1.265625 3.6123,-1.265625 2.24121,0 3.51563,1.265625 1.27441,1.256836 1.27441,3.331054 0,2.241211 -1.31836,3.541992 -1.30957,1.300782 -3.59473,1.300782 z m 0.0703,-7.3125 q -0.98438,0 -1.5293,0.676758 -0.54492,0.676757 -0.54492,1.916015 0,2.592774 2.09179,2.592774 1.99512,0 1.99512,-2.663086 0,-2.522461 -2.01269,-2.522461 z m -6.5742,7.092773 h -2.62793 v -1.291992 h -0.0352 q -0.90527,1.511719 -2.68066,1.511719 -1.30957,0 -2.06543,-0.738282 -0.74707,-0.74707 -0.74707,-1.986328 0,-2.61914 3.10254,-3.023437 l 2.44336,-0.325195 q 0,-1.476563 -1.59961,-1.476563 -1.6084,0 -3.0586,0.958008 v -2.091797 q 0.58008,-0.298828 1.58203,-0.527344 1.01075,-0.228515 1.83692,-0.228515 3.84961,0 3.84961,3.84082 z m -2.61035,-3.65625 V 30.32959 l -1.63477,0.210937 q -1.35351,0.175782 -1.35351,1.22168 0,0.474609 0.32519,0.782227 0.33398,0.298828 0.89648,0.298828 0.78223,0 1.27442,-0.536133 0.49219,-0.544922 0.49219,-1.371094 z m -7.50586,3.65625 h -2.86524 l -5.19433,-7.918945 q -0.45703,-0.694336 -0.63282,-1.045899 h -0.0352 q 0.0703,0.667969 0.0703,2.039063 v 6.925781 H 108.2226 V 21.98877 h 3.05859 l 5.00098,7.672851 q 0.34277,0.518555 0.63281,1.02832 h 0.0352 q -0.0703,-0.439453 -0.0703,-1.731445 V 21.98877 h 2.68067 z m -18.78223,0 h -2.627929 v -1.291992 h -0.03516 q -0.905273,1.511719 -2.680664,1.511719 -1.30957,0 -2.065429,-0.738282 -0.747071,-0.74707 -0.747071,-1.986328 0,-2.61914 3.102539,-3.023437 l 2.44336,-0.325195 q 0,-1.476563 -1.59961,-1.476563 -1.608398,0 -3.058593,0.958008 v -2.091797 q 0.580078,-0.298828 1.582031,-0.527344 1.010742,-0.228515 1.836914,-0.228515 3.849612,0 3.849612,3.84082 z m -2.610351,-3.65625 V 30.32959 l -1.634766,0.210937 q -1.353516,0.175782 -1.353516,1.22168 0,0.474609 0.325196,0.782227 0.333984,0.298828 0.896484,0.298828 0.782227,0 1.274414,-0.536133 0.492188,-0.544922 0.492188,-1.371094 z m -7.198242,2.62793 q 0,2.504883 -1.450196,3.875976 -1.450195,1.379883 -4.201172,1.379883 -1.819336,0 -2.882812,-0.518554 v -2.337891 q 1.388672,0.808594 2.803711,0.808594 1.40625,0 2.179687,-0.747071 0.773438,-0.738281 0.773438,-2.012695 v -0.711914 h -0.03516 q -0.949219,1.511719 -2.803711,1.511719 -1.722657,0 -2.733399,-1.212891 -1.010742,-1.212891 -1.010742,-3.251953 0,-2.285156 1.125,-3.629883 1.125,-1.344726 2.961914,-1.344726 1.643555,0 2.460938,1.265625 h 0.03516 v -1.045899 h 2.777344 z m -2.742188,-3.295899 v -0.711914 q 0,-0.852539 -0.509766,-1.450195 -0.500976,-0.606445 -1.30957,-0.606445 -0.922851,0 -1.450195,0.720703 -0.527344,0.720703 -0.527344,2.030273 0,1.125 0.500977,1.78418 0.500976,0.650391 1.371093,0.650391 0.861328,0 1.388672,-0.65918 0.536133,-0.667969 0.536133,-1.757813 z m -7.734375,0.615235 H 74.62207 q 0.140625,1.959961 2.469727,1.959961 1.485351,0 2.610351,-0.703125 v 2.003906 q -1.248046,0.667969 -3.243164,0.667969 -2.179687,0 -3.383789,-1.204102 -1.204101,-1.21289 -1.204101,-3.375 0,-2.241211 1.300781,-3.550781 1.300781,-1.30957 3.199219,-1.30957 1.96875,0 3.041015,1.168945 1.081055,1.168945 1.081055,3.172851 z m -2.575195,-1.705078 q 0,-1.933594 -1.564453,-1.933594 -0.667969,0 -1.160157,0.553711 -0.483398,0.553711 -0.588867,1.379883 z m -15.908203,4.930664 v -2.8125 q 0.764648,0.641601 1.661132,0.966797 0.896485,0.316406 1.810547,0.316406 0.536133,0 0.931641,-0.09668 0.404297,-0.09668 0.667969,-0.263672 0.272461,-0.175781 0.404297,-0.404297 0.131835,-0.237304 0.131835,-0.509765 0,-0.369141 -0.210937,-0.65918 -0.210938,-0.290039 -0.580078,-0.536133 -0.360352,-0.246093 -0.861328,-0.474609 -0.500977,-0.228516 -1.081055,-0.46582 -1.476562,-0.615235 -2.206055,-1.50293 -0.720703,-0.887695 -0.720703,-2.144531 0,-0.984375 0.395508,-1.6875 0.395508,-0.711914 1.072266,-1.168946 0.685547,-0.457031 1.582031,-0.667968 0.896484,-0.219727 1.898437,-0.219727 0.984375,0 1.740235,0.123047 0.764648,0.114258 1.40625,0.360351 v 2.62793 q -0.316406,-0.219726 -0.694336,-0.386719 -0.369141,-0.166992 -0.764649,-0.272461 -0.395507,-0.114257 -0.791015,-0.166992 -0.386719,-0.05273 -0.738281,-0.05273 -0.483399,0 -0.878907,0.09668 -0.395508,0.08789 -0.667968,0.254882 -0.272461,0.166993 -0.421875,0.404297 -0.149415,0.228516 -0.149415,0.518555 0,0.316406 0.166993,0.571289 0.166992,0.246094 0.474609,0.474609 0.307617,0.219727 0.74707,0.439454 0.439453,0.210937 0.993164,0.439453 0.75586,0.316406 1.353516,0.676757 0.606445,0.351563 1.037109,0.799805 0.430664,0.448242 0.65918,1.02832 0.228516,0.57129 0.228516,1.335938 0,1.054687 -0.404297,1.775391 -0.395508,0.711914 -1.081055,1.160156 -0.685547,0.439453 -1.599609,0.632812 -0.905274,0.19336 -1.916016,0.19336 -1.037109,0 -1.977539,-0.175782 -0.931641,-0.175781 -1.617187,-0.527343 z" /></g>

</svg>