<?xml version="1.0" encoding="UTF-8" standalone="no"?>
<!-- Generator: Adobe Illustrator 24.0.3, SVG Export Plug-In . SVG Version: 6.00 Build 0)  -->

<svg
   xmlns:dc="http://purl.org/dc/elements/1.1/"
   xmlns:cc="http://creativecommons.org/ns#"
   xmlns:rdf="http://www.w3.org/1999/02/22-rdf-syntax-ns#"
   xmlns:svg="http://www.w3.org/2000/svg"
   xmlns="http://www.w3.org/2000/svg"
   xmlns:sodipodi="http://sodipodi.sourceforge.net/DTD/sodipodi-0.dtd"
   xmlns:inkscape="http://www.inkscape.org/namespaces/inkscape"
   version="1.1"
   id="Capa_1"
   x="0px"
   y="0px"
   width="240px"
   height="60px"
   viewBox="0 0 240 60"
   enable-background="new 0 0 240 60"
   xml:space="preserve"
   sodipodi:docname="setup.svg"
   inkscape:version="0.92.3 (2405546, 2018-03-11)"><metadata
   id="metadata37"><rdf:RDF><cc:Work
       rdf:about=""><dc:format>image/svg+xml</dc:format><dc:type
         rdf:resource="http://purl.org/dc/dcmitype/StillImage" /><dc:title></dc:title></cc:Work></rdf:RDF></metadata><defs
   id="defs35" /><sodipodi:namedview
   pagecolor="#ffffff"
   bordercolor="#666666"
   borderopacity="1"
   objecttolerance="10"
   gridtolerance="10"
   guidetolerance="10"
   inkscape:pageopacity="0"
   inkscape:pageshadow="2"
   inkscape:window-width="1360"
   inkscape:window-height="705"
   id="namedview33"
   showgrid="false"
   inkscape:zoom="4.6838256"
   inkscape:cx="120.87293"
   inkscape:cy="30"
   inkscape:window-x="-8"
   inkscape:window-y="-8"
   inkscape:window-maximized="1"
   inkscape:current-layer="text41-4"
   inkscape:measure-start="0,0"
   inkscape:measure-end="0,0" />
<path
   enable-background="new    "
   d="m 11,5.4901466e-7 h 218 c 6.1,0 11,4.89999995098534 11,11.00000045098534 v 38 c 0,6.1 -4.9,11 -11,11 H 11 c -6.1,0 -11,-4.9 -11,-11 v -38 C 0,4.9000005 4.9,5.4901466e-7 11,5.4901466e-7 Z"
   id="path10"
   inkscape:connector-curvature="0"
   style="clip-rule:evenodd;opacity:0.85;fill:#4d4d4d;fill-rule:evenodd" />

<g
   aria-label="Setup"
   style="font-style:normal;font-variant:normal;font-weight:bold;font-stretch:normal;font-size:40px;line-height:1.25;font-family:Ebrima;-inkscape-font-specification:'Ebrima Bold';letter-spacing:0px;word-spacing:0px;fill:#e6e6e6;fill-opacity:1;stroke:none"
   id="text41-4"><path
     d="m 96.322266,34.108887 v -2.8125 q 0.764648,0.641601 1.661132,0.966797 0.896485,0.316406 1.810547,0.316406 0.536135,0 0.931645,-0.09668 0.40429,-0.09668 0.66796,-0.263672 0.27247,-0.175781 0.4043,-0.404297 0.13184,-0.237304 0.13184,-0.509765 0,-0.369141 -0.21094,-0.65918 -0.21094,-0.290039 -0.58008,-0.536133 -0.36035,-0.246093 -0.86133,-0.474609 -0.500973,-0.228516 -1.081051,-0.46582 -1.476562,-0.615235 -2.206055,-1.50293 -0.720703,-0.887695 -0.720703,-2.144531 0,-0.984375 0.395508,-1.6875 0.395508,-0.711914 1.072266,-1.168946 0.685547,-0.457031 1.582031,-0.667968 0.896484,-0.219727 1.898434,-0.219727 0.98438,0 1.74024,0.123047 0.76465,0.114258 1.40625,0.360351 v 2.62793 q -0.31641,-0.219726 -0.69434,-0.386719 -0.36914,-0.166992 -0.76465,-0.272461 -0.3955,-0.114257 -0.79101,-0.166992 -0.38672,-0.05273 -0.73828,-0.05273 -0.4834,0 -0.87891,0.09668 -0.39551,0.08789 -0.667968,0.254882 -0.272461,0.166993 -0.421875,0.404297 -0.149415,0.228516 -0.149415,0.518555 0,0.316406 0.166993,0.571289 0.166992,0.246094 0.474609,0.474609 0.307616,0.219727 0.747066,0.439454 0.43946,0.210937 0.99317,0.439453 0.75586,0.316406 1.35351,0.676757 0.60645,0.351563 1.03711,0.799805 0.43067,0.448242 0.65918,1.02832 0.22852,0.57129 0.22852,1.335938 0,1.054687 -0.4043,1.775391 -0.39551,0.711914 -1.08105,1.160156 -0.68555,0.439453 -1.59961,0.632812 -0.90528,0.19336 -1.916018,0.19336 -1.037109,0 -1.977539,-0.175782 -0.931641,-0.175781 -1.617187,-0.527343 z"
     style="font-style:normal;font-variant:normal;font-weight:bold;font-stretch:normal;font-size:18px;font-family:Ebrima;-inkscape-font-specification:'Ebrima Bold';text-align:center;text-anchor:middle;fill:#e6e6e6"
     id="path4532" /><path
     d="m 114.80566,30.883301 h -5.87109 q 0.14063,1.959961 2.46973,1.959961 1.48535,0 2.61035,-0.703125 v 2.003906 q -1.24805,0.667969 -3.24317,0.667969 -2.17968,0 -3.38378,-1.204102 -1.20411,-1.21289 -1.20411,-3.375 0,-2.241211 1.30079,-3.550781 1.30078,-1.30957 3.19921,-1.30957 1.96875,0 3.04102,1.168945 1.08105,1.168945 1.08105,3.172851 z m -2.57519,-1.705078 q 0,-1.933594 -1.56445,-1.933594 -0.66797,0 -1.16016,0.553711 -0.4834,0.553711 -0.58887,1.379883 z"
     style="font-style:normal;font-variant:normal;font-weight:bold;font-stretch:normal;font-size:18px;font-family:Ebrima;-inkscape-font-specification:'Ebrima Bold';text-align:center;text-anchor:middle;fill:#e6e6e6"
     id="path4534" /><path
     d="m 121.89844,34.486816 q -0.61524,0.325196 -1.85449,0.325196 -2.93555,0 -2.93555,-3.049805 v -4.12207 h -1.45899 v -2.047852 h 1.45899 v -1.942383 l 2.76855,-0.791015 v 2.733398 h 2.02149 v 2.047852 h -2.02149 v 3.638672 q 0,1.40625 1.11621,1.40625 0.43946,0 0.90528,-0.254883 z"
     style="font-style:normal;font-variant:normal;font-weight:bold;font-stretch:normal;font-size:18px;font-family:Ebrima;-inkscape-font-specification:'Ebrima Bold';text-align:center;text-anchor:middle;fill:#e6e6e6"
     id="path4536" /><path
     d="m 132.00586,34.592285 h -2.76856 v -1.371094 h -0.0439 q -1.02832,1.590821 -2.75098,1.590821 -3.1289,0 -3.1289,-3.788086 v -5.431641 h 2.76855 v 5.185547 q 0,1.907227 1.51172,1.907227 0.74707,0 1.19531,-0.518555 0.44824,-0.527344 0.44824,-1.423828 v -5.150391 h 2.76856 z"
     style="font-style:normal;font-variant:normal;font-weight:bold;font-stretch:normal;font-size:18px;font-family:Ebrima;-inkscape-font-specification:'Ebrima Bold';text-align:center;text-anchor:middle;fill:#e6e6e6"
     id="path4538" /><path
     d="m 137.16504,33.546387 h -0.0352 v 5.185547 h -2.77734 V 25.592285 h 2.77734 v 1.353516 h 0.0352 q 1.02832,-1.573242 2.8916,-1.573242 1.74902,0 2.69824,1.204101 0.95801,1.195313 0.95801,3.260742 0,2.25 -1.11621,3.612305 -1.10742,1.362305 -2.95313,1.362305 -1.62597,0 -2.47851,-1.265625 z m -0.0791,-3.691407 v 0.720704 q 0,0.93164 0.49218,1.520507 0.49219,0.588868 1.292,0.588868 0.94922,0 1.46777,-0.729493 0.52734,-0.738281 0.52734,-2.083007 0,-2.373047 -1.8457,-2.373047 -0.85254,0 -1.39746,0.65039 -0.53613,0.641602 -0.53613,1.705078 z"
     style="font-style:normal;font-variant:normal;font-weight:bold;font-stretch:normal;font-size:18px;font-family:Ebrima;-inkscape-font-specification:'Ebrima Bold';text-align:center;text-anchor:middle;fill:#e6e6e6"
     id="path4540" /></g>

</svg>